<svg width="25" height="26" viewBox="0 0 25 26" fill="none" xmlns="http://www.w3.org/2000/svg">
<path d="M24 21.986V12.9861C24.0001 12.3599 23.8723 11.7404 23.6245 11.1653C23.3768 10.5903 23.0142 10.0719 22.559 9.64189L14.0801 1.62869C13.6531 1.22495 13.0877 1 12.5 1C11.9123 1 11.3469 1.22495 10.9199 1.62869L2.44095 9.64189C1.98581 10.0719 1.62325 10.5903 1.37547 11.1653C1.1277 11.7404 0.999933 12.3599 1 12.9861V21.986C1 22.596 1.24232 23.181 1.67365 23.6123C2.10499 24.0437 2.69 24.286 3.3 24.286H21.7C22.31 24.286 22.895 24.0437 23.3263 23.6123C23.7577 23.181 24 22.596 24 21.986Z" stroke="#246074" stroke-width="2" stroke-linecap="round" stroke-linejoin="round"/>
</svg>
